<svg xmlns="http://www.w3.org/2000/svg" viewBox="0 0 64 64" width="64" height="64">
  <rect width="64" height="64" rx="16" fill="#0C0C0C"/>
  <defs>
    <linearGradient id="g" x1="8" y1="8" x2="56" y2="56" gradientUnits="userSpaceOnUse">
      <stop offset="0%" stop-color="#B600A8"/>
      <stop offset="45%" stop-color="#7621B0"/>
      <stop offset="100%" stop-color="#BE4C00"/>
    </linearGradient>
  </defs>
  <path
    fill="url(#g)"
    transform="translate(32 32) scale(0.27)"
    d="M45.2,-58.3C58.4,-49.7,68.7,-35.6,72.6,-19.8C76.4,-4,73.8,13.5,65.9,28.2C58,42.9,44.9,54.8,29.9,61.7C14.9,68.6,-2,70.5,-18.6,66.9C-35.2,63.3,-51.5,54.2,-61.8,40.5C-72.1,26.8,-76.4,8.5,-73.6,-8.2C-70.8,-24.9,-60.9,-40,-47.6,-48.7C-34.3,-57.4,-17.2,-59.7,0.3,-60.1C17.7,-60.5,35.4,-59,45.2,-58.3Z"
  />
</svg>
